<?xml version="1.0" encoding="UTF-8" standalone="no"?>
<!DOCTYPE svg PUBLIC "-//W3C//DTD SVG 1.1//EN" "http://www.w3.org/Graphics/SVG/1.1/DTD/svg11.dtd">
<!-- Created with Vectornator (http://vectornator.io/) -->
<svg stroke-miterlimit="10" style="fill-rule:nonzero;clip-rule:evenodd;stroke-linecap:round;stroke-linejoin:round;" version="1.1" viewBox="0 0 1789 979" xml:space="preserve" xmlns="http://www.w3.org/2000/svg" xmlns:xlink="http://www.w3.org/1999/xlink">
<defs/>
<g id="Black">
<path d="M1203 126C1201 126.667 1199.17 127.833 1197.5 129.5C1195.83 131.167 1194.67 133 1194 135C1193.33 137 1193.17 139.5 1193.5 142.5C1193.83 145.5 1206.17 168.667 1230.5 212C1254.83 255.333 1283.17 310.833 1315.5 378.5C1347.83 446.167 1372.67 495.167 1390 525.5C1407.33 555.833 1426 585.5 1446 614.5C1466 643.5 1485 669.167 1503 691.5C1521 713.833 1533.17 728 1539.5 734C1545.83 740 1552.17 745.333 1558.5 750C1564.83 754.667 1570.17 758 1574.5 760C1578.83 762 1582.83 763 1586.5 763C1590.17 763 1592.5 762.167 1593.5 760.5C1594.5 758.833 1594.83 757 1594.5 755C1594.17 753 1590.83 745.167 1584.5 731.5C1578.17 717.833 1561.83 691.333 1535.5 652C1509.17 612.667 1492.5 587.167 1485.5 575.5C1482 569.667 1478.5 563.833 1475 558C1485.5 562.167 1496 566.333 1506.5 570.5C1527.5 578.833 1563.5 595.167 1614.5 619.5C1665.5 643.833 1693.17 656.667 1697.5 658C1699.67 658.667 1701.83 659.333 1704 660C1704.33 658.833 1704.67 657.667 1705 656.5C1705.67 654.167 1704 649.667 1700 643C1696 636.333 1691.17 630 1685.5 624C1679.83 618 1668.33 608.5 1651 595.5C1633.67 582.5 1617.5 571.667 1602.5 563C1587.5 554.333 1568.83 544.333 1546.5 533C1524.17 521.667 1509 514.333 1501 511C1493 507.667 1484.17 504.667 1474.5 502C1464.83 499.333 1460 497.667 1460 497C1460 496.333 1463.5 493 1470.5 487C1477.5 481 1491.33 467.333 1512 446C1532.67 424.667 1551.33 406.5 1568 391.5C1584.67 376.5 1604.67 357.5 1628 334.5C1651.33 311.5 1665.33 297.167 1670 291.5C1674.67 285.833 1677 282.167 1677 280.5C1677 279.667 1677 278.833 1677 278C1674 278.5 1671 279 1668 279.5C1662 280.5 1655.17 282.833 1647.5 286.5C1639.83 290.167 1626.33 298.167 1607 310.5C1587.67 322.833 1561.33 342 1528 368C1494.67 394 1473.5 411 1464.5 419C1455.5 427 1445.67 436.667 1435 448C1429.67 453.667 1424.33 459.333 1419 465C1414.5 457 1410 449 1405.5 441C1396.5 425 1381 394.333 1359 349C1337 303.667 1318.33 267.5 1303 240.5C1287.67 213.5 1273.83 191.5 1261.5 174.5C1249.17 157.5 1239.17 145.5 1231.5 138.5C1223.83 131.5 1217.67 127.5 1213 126.5C1208.33 125.5 1205 125.333 1203 126Z" fill="#000000" fill-rule="nonzero" opacity="1" stroke="#000000" stroke-linecap="round" stroke-linejoin="round" stroke-width="1"/>
<path d="M525 134.5C521.667 136.167 518.833 138.167 516.5 140.5C514.167 142.833 510 149.5 504 160.5C498 171.5 488.667 191.833 476 221.5C463.333 251.167 449.667 285.667 435 325C420.333 364.333 410.5 389.667 405.5 401C403 406.667 400.5 412.333 398 418C385.167 405.833 372.333 393.667 359.5 381.5C333.833 357.167 312.833 338.833 296.5 326.5C280.167 314.167 270 307 266 305C262 303 258.333 302 255 302C251.667 302 248.5 303.167 245.5 305.5C242.5 307.833 240.5 310.333 239.5 313C238.5 315.667 238.167 319.167 238.5 323.5C238.833 327.833 239.833 332 241.5 336C243.167 340 245.667 344.333 249 349C252.333 353.667 260 361.667 272 373C284 384.333 299.667 397.667 319 413C338.333 428.333 350.833 437.833 356.5 441.5C362.167 445.167 365.333 447.667 366 449C366.333 449.667 366.667 450.333 367 451C360.167 454.5 353.333 458 346.5 461.5C332.833 468.5 320.333 475.667 309 483C297.667 490.333 269.667 512.167 225 548.5C180.333 584.833 152.833 607.667 142.5 617C132.167 626.333 120 638.167 106 652.5C92 666.833 81.5 678.5 74.5 687.5C67.5 696.5 62.6667 703.5 60 708.5C57.3333 713.5 56 717 56 719C56 721 56.5 722.167 57.5 722.5C58.5 722.833 62.1667 721 68.5 717C74.8333 713 109 688.333 171 643C233 597.667 278.833 565 308.5 545C338.167 525 353.5 515 354.5 515C355 515 355.5 515 356 515C348 534.5 340 554 332 573.5C316 612.5 303.333 646.667 294 676C284.667 705.333 278.167 729.667 274.5 749C270.833 768.333 269.167 781.667 269.5 789C269.833 796.333 270.167 800.333 270.5 801C270.833 801.667 271.833 802 273.5 802C275.167 802 276.5 801.5 277.5 800.5C278.5 799.5 284 790.333 294 773C304 755.667 318 729.333 336 694C354 658.667 374.5 616 397.5 566C420.5 516 438.167 476.5 450.5 447.5C462.833 418.5 475.333 386.333 488 351C500.667 315.667 515.5 277 532.5 235C549.5 193 558.5 170.333 559.5 167C560.5 163.667 561 160.167 561 156.5C561 152.833 560.167 149.167 558.5 145.5C556.833 141.833 554 138.667 550 136C546 133.333 541.667 132 537 132C532.333 132 528.333 132.833 525 134.5Z" fill="#000000" fill-rule="nonzero" opacity="1" stroke="#000000" stroke-linecap="round" stroke-linejoin="round" stroke-width="1"/>
<path d="M905 141.5C901.667 143.167 898.333 145.667 895 149C891.667 152.333 882 163.5 866 182.5C850 201.5 835.167 220.833 821.5 240.5C807.833 260.167 796.333 277.833 787 293.5C782.333 301.333 777.667 309.167 773 317C771.333 308.667 769.667 300.333 768 292C764.667 275.333 760.5 258.333 755.5 241C750.5 223.667 747 213.667 745 211C743 208.333 740.167 206.167 736.5 204.5C732.833 202.833 729.167 202.333 725.5 203C721.833 203.667 718.667 205.333 716 208C713.333 210.667 711.5 213.5 710.5 216.5C709.5 219.5 709 224.833 709 232.5C709 240.167 709.833 249.5 711.5 260.5C713.167 271.5 717.333 287.667 724 309C730.667 330.333 735.833 344.833 739.5 352.5C743.167 360.167 743.5 366.5 740.5 371.5C737.5 376.5 735.667 380.333 735 383C734.333 385.667 734.333 388.167 735 390.5C735.667 392.833 736.667 394.667 738 396C739.333 397.333 741.667 398 745 398C748.333 398 751.667 396.667 755 394C756.667 392.667 758.333 391.333 760 390C761.5 392 763 394 764.5 396C767.5 400 769.5 402.333 770.5 403C771.5 403.667 773.167 403.833 775.5 403.5C777.833 403.167 779.333 402.167 780 400.5C780.667 398.833 780.833 391.333 780.5 378C780.167 364.667 789.333 344.167 808 316.5C826.667 288.833 844.667 265.167 862 245.5C870.667 235.667 879.333 225.833 888 216C887.167 230.833 886.333 245.667 885.5 260.5C883.833 290.167 883.167 313.5 883.5 330.5C883.833 347.5 884.667 360.333 886 369C887.333 377.667 889 385.167 891 391.5C893 397.833 895.5 402.833 898.5 406.5C901.5 410.167 904 412 906 412C908 412 910.5 407.167 913.5 397.5C916.5 387.833 919.5 375.5 922.5 360.5C925.5 345.5 929.833 313.167 935.5 263.5C941.167 213.833 943.833 184.333 943.5 175C943.167 165.667 942.167 159 940.5 155C938.833 151 936 147.5 932 144.5C928 141.5 923.333 139.833 918 139.5C912.667 139.167 908.333 139.833 905 141.5Z" fill="#000000" fill-rule="nonzero" opacity="1" stroke="#000000" stroke-linecap="round" stroke-linejoin="round" stroke-width="1"/>
<path d="M1102 152.5C1096 152.167 1090.83 153 1086.5 155C1082.17 157 1078 159.833 1074 163.5C1070 167.167 1064 174.5 1056 185.5C1048 196.5 1032.33 222.667 1009 264C985.667 305.333 973.5 326.667 972.5 328C971.5 329.333 969 330.833 965 332.5C961 334.167 958.333 335.833 957 337.5C955.667 339.167 954.667 341 954 343C953.333 345 953.167 347.833 953.5 351.5C953.833 355.167 952.167 359.833 948.5 365.5C944.833 371.167 942.667 375.833 942 379.5C941.333 383.167 941.5 386.5 942.5 389.5C943.5 392.5 944.833 394.833 946.5 396.5C948.167 398.167 950 399.333 952 400C954 400.667 957.167 400.5 961.5 399.5C965.833 398.5 969.833 395.667 973.5 391C977.167 386.333 979.833 383.667 981.5 383C983.167 382.333 992 384.833 1008 390.5C1024 396.167 1039 400.667 1053 404C1067 407.333 1075.17 421.5 1077.5 446.5C1079.83 471.5 1082.33 488 1085 496C1087.67 504 1089.83 509 1091.5 511C1093.17 513 1094.83 514.167 1096.5 514.5C1098.17 514.833 1099.67 513.667 1101 511C1102.33 508.333 1104.17 501.5 1106.5 490.5C1108.83 479.5 1111.5 464 1114.5 444C1117.5 424 1121.17 413.5 1125.5 412.5C1129.83 411.5 1132 410.5 1132 409.5C1132 408.5 1130.17 406.167 1126.5 402.5C1122.83 398.833 1123.17 378 1127.5 340C1131.83 302 1134.33 270.333 1135 245C1135.67 219.667 1135.33 202.167 1134 192.5C1132.67 182.833 1130.5 175.167 1127.5 169.5C1124.5 163.833 1121 159.667 1117 157C1113 154.333 1108 152.833 1102 152.5ZM1082 227C1082.17 230.333 1082.33 233.667 1082.5 237C1082.83 243.667 1082.17 257 1080.5 277C1078.83 297 1077.67 317.333 1077 338C1076.33 358.667 1075.67 369.333 1075 370C1074.33 370.667 1069.33 368.667 1060 364C1050.67 359.333 1039.67 354.5 1027 349.5C1014.33 344.5 1008 341.5 1008 340.5C1008 339.5 1020.33 320.333 1045 283C1057.33 264.333 1069.67 245.667 1082 227Z" fill="#000000" fill-rule="nonzero" opacity="1" stroke="#000000" stroke-linecap="round" stroke-linejoin="round" stroke-width="1"/>
<path d="M659.094 162.781C655.531 162.844 651.5 163.75 647 165.5C641 167.833 633.667 173.833 625 183.5C616.333 193.167 601.5 214.667 580.5 248C559.5 281.333 545.167 305.333 537.5 320C529.833 334.667 523.5 344.167 518.5 348.5C513.5 352.833 511 358.167 511 364.5C511 370.833 508.833 379.667 504.5 391C500.167 402.333 496.833 413.5 494.5 424.5C492.167 435.5 489.667 444.5 487 451.5C484.333 458.5 483.167 464.5 483.5 469.5C483.833 474.5 485.167 478.167 487.5 480.5C489.833 482.833 493 484 497 484C501 484 504.667 482.5 508 479.5C511.333 476.5 516.5 466.667 523.5 450C530.5 433.333 537 419.333 543 408C549 396.667 565.5 392.667 592.5 396C619.5 399.333 639.167 401.333 651.5 402C663.833 402.667 671.167 405.667 673.5 411C675.833 416.333 679 421.333 683 426C687 430.667 690.667 433.333 694 434C697.333 434.667 700.167 434 702.5 432C704.833 430 707.167 425.333 709.5 418C711.833 410.667 713 401.333 713 390C713 378.667 711.667 358.167 709 328.5C706.333 298.833 703.167 271.333 699.5 246C695.833 220.667 693.167 204.667 691.5 198C689.833 191.333 687.667 185.5 685 180.5C682.333 175.5 679 171.5 675 168.5C671 165.5 666.833 163.667 662.5 163C661.417 162.833 660.281 162.76 659.094 162.781ZM645 233C645.5 235.333 646 237.667 646.5 240C647.5 244.667 649 259.833 651 285.5C653 311.167 655.333 330.667 658 344C659.333 350.667 660.667 357.333 662 364C656.167 362.333 650.333 360.667 644.5 359C632.833 355.667 618.833 352.333 602.5 349C594.333 347.333 586.167 345.667 578 344C578.833 342 579.667 340 580.5 338C582.167 334 588.167 323.333 598.5 306C608.833 288.667 619.167 272.167 629.5 256.5C634.667 248.667 639.833 240.833 645 233Z" fill="#000000" fill-rule="nonzero" opacity="1" stroke="#000000" stroke-linecap="round" stroke-linejoin="round" stroke-width="1"/>
<path d="M1228.5 334C1224.83 336.667 1220 345.167 1214 359.5C1211 366.667 1208 373.833 1205 381C1201.83 377.5 1198.67 374 1195.5 370.5C1189.17 363.5 1184.67 359.333 1182 358C1179.33 356.667 1175.67 356.167 1171 356.5C1166.33 356.833 1162.67 358.667 1160 362C1157.33 365.333 1156.17 369.333 1156.5 374C1156.83 378.667 1159.83 385.333 1165.5 394C1168.33 398.333 1171.17 402.667 1174 407C1171.5 407.5 1169 408 1166.5 408.5C1161.5 409.5 1156.83 411.167 1152.5 413.5C1148.17 415.833 1145 418.5 1143 421.5C1141 424.5 1140 428 1140 432C1140 436 1141.17 439.5 1143.5 442.5C1145.83 445.5 1148.17 447.5 1150.5 448.5C1152.83 449.5 1156.33 449.833 1161 449.5C1165.67 449.167 1170.83 447.833 1176.5 445.5C1179.33 444.333 1182.17 443.167 1185 442C1183.33 448.667 1181.67 455.333 1180 462C1176.67 475.333 1174.83 484.667 1174.5 490C1174.17 495.333 1174.33 499 1175 501C1175.67 503 1177 503.833 1179 503.5C1181 503.167 1183.5 501.167 1186.5 497.5C1189.5 493.833 1193.33 487.667 1198 479C1202.67 470.333 1207 461.167 1211 451.5C1213 446.667 1215 441.833 1217 437C1224 440.667 1231 444.333 1238 448C1252 455.333 1260.83 459.5 1264.5 460.5C1268.17 461.5 1272.33 461.833 1277 461.5C1281.67 461.167 1284.17 460.167 1284.5 458.5C1284.83 456.833 1284.17 454.833 1282.5 452.5C1280.83 450.167 1274.33 443.667 1263 433C1257.33 427.667 1251.67 422.333 1246 417C1256.67 412.333 1267.33 407.667 1278 403C1299.33 393.667 1309.83 388.333 1309.5 387C1309.17 385.667 1304.83 384.833 1296.5 384.5C1288.17 384.167 1276.5 385.167 1261.5 387.5C1254 388.667 1246.5 389.833 1239 391C1241.33 385.5 1243.67 380 1246 374.5C1250.67 363.5 1253.17 355.167 1253.5 349.5C1253.83 343.833 1252.83 339.5 1250.5 336.5C1248.17 333.5 1244.83 331.667 1240.5 331C1236.17 330.333 1232.17 331.333 1228.5 334Z" fill="#000000" fill-rule="nonzero" opacity="1" stroke="#000000" stroke-linecap="round" stroke-linejoin="round" stroke-width="1"/>
<path d="M791.5 438C780.5 439.333 770.833 441.333 762.5 444C754.167 446.667 748.833 449 746.5 451C744.167 453 742.5 455 741.5 457C740.5 459 739.833 462.167 739.5 466.5C739.167 470.833 739.5 474.167 740.5 476.5C741.5 478.833 743.167 481.167 745.5 483.5C747.833 485.833 751.167 487.667 755.5 489C759.833 490.333 769 490.5 783 489.5C797 488.5 811.667 488.167 827 488.5C834.667 488.667 842.333 488.833 850 489C848.333 496 846.667 503 845 510C841.667 524 838.833 540.833 836.5 560.5C834.167 580.167 832.833 597.5 832.5 612.5C832.167 627.5 832.833 642.667 834.5 658C836.167 673.333 838.833 687.833 842.5 701.5C846.167 715.167 851.5 730 858.5 746C865.5 762 870.167 771.667 872.5 775C874.833 778.333 878.333 782 883 786C887.667 790 891.5 792.5 894.5 793.5C897.5 794.5 900.333 794.833 903 794.5C905.667 794.167 907.5 793.5 908.5 792.5C909.5 791.5 909.667 786.333 909 777C908.333 767.667 904.167 746.333 896.5 713C888.833 679.667 884.333 656.5 883 643.5C881.667 630.5 881.5 613 882.5 591C883.5 569 885.5 547.667 888.5 527C890 516.667 891.5 506.333 893 496C909.5 499.333 926 502.667 942.5 506C975.5 512.667 996.333 516 1005 516C1013.67 516 1019.33 515.667 1022 515C1024.67 514.333 1026.83 513 1028.5 511C1030.17 509 1031 507 1031 505C1031 503 1029.67 499.667 1027 495C1024.33 490.333 1020.17 485.833 1014.5 481.5C1008.83 477.167 998.167 472 982.5 466C966.833 460 952.833 455.333 940.5 452C928.167 448.667 915.5 445.833 902.5 443.5C889.5 441.167 876.833 439.333 864.5 438C852.167 436.667 839.667 436 827 436C814.333 436 802.5 436.667 791.5 438Z" fill="#000000" fill-rule="nonzero" opacity="1" stroke="#000000" stroke-linecap="round" stroke-linejoin="round" stroke-width="1"/>
<path d="M634.5 447.5C628.167 449.167 620.833 452.333 612.5 457C604.167 461.667 595 468.667 585 478C575 487.333 568.333 494.167 565 498.5C561.667 502.833 557.667 509.167 553 517.5C548.333 525.833 544.833 533.5 542.5 540.5C540.167 547.5 538.667 555.667 538 565C537.333 574.333 537.667 582.333 539 589C540.333 595.667 542.833 603.167 546.5 611.5C550.167 619.833 554.833 627.833 560.5 635.5C566.167 643.167 572.167 649.833 578.5 655.5C584.833 661.167 592.5 666.667 601.5 672C610.5 677.333 620 681.833 630 685.5C640 689.167 648.5 691.833 655.5 693.5C662.5 695.167 680.167 697.833 708.5 701.5C736.833 705.167 755.667 708.5 765 711.5C774.333 714.5 779.833 716.833 781.5 718.5C783.167 720.167 783.667 723 783 727C782.333 731 780.667 734.5 778 737.5C775.333 740.5 771.167 743.667 765.5 747C759.833 750.333 752.333 753 743 755C733.667 757 715.333 758.167 688 758.5C660.667 758.833 646 760 644 762C642 764 641 767 641 771C641 775 641.833 778.667 643.5 782C645.167 785.333 647.667 788.667 651 792C654.333 795.333 658.333 798.333 663 801C667.667 803.667 673.5 806 680.5 808C687.5 810 695.5 811.5 704.5 812.5C713.5 813.5 721.833 813.833 729.5 813.5C737.167 813.167 743.833 812.333 749.5 811C755.167 809.667 763.333 806.667 774 802C784.667 797.333 793.167 792.667 799.5 788C805.833 783.333 811 778.833 815 774.5C819 770.167 822.833 764.833 826.5 758.5C830.167 752.167 832.667 746.833 834 742.5C835.333 738.167 836.167 733.5 836.5 728.5C836.833 723.5 836.667 718.833 836 714.5C835.333 710.167 833.167 704.5 829.5 697.5C825.833 690.5 822 685.167 818 681.5C814 677.833 809.167 674.333 803.5 671C797.833 667.667 790.833 664.667 782.5 662C774.167 659.333 755.833 655.5 727.5 650.5C699.167 645.5 679 641.333 667 638C655 634.667 644.5 630.667 635.5 626C626.5 621.333 618.833 615.833 612.5 609.5C606.167 603.167 601.5 597.333 598.5 592C595.5 586.667 593.5 582.167 592.5 578.5C591.5 574.833 591 571.333 591 568C591 564.667 591.833 560.167 593.5 554.5C595.167 548.833 597.667 543.167 601 537.5C604.333 531.833 608.667 526 614 520C619.333 514 624.5 509 629.5 505C634.5 501 639.833 498.167 645.5 496.5C651.167 494.833 656.333 496.333 661 501C665.667 505.667 671.5 514.167 678.5 526.5C685.5 538.833 690.333 548.667 693 556C695.667 563.333 699.333 576.667 704 596C708.667 615.333 711.833 626.833 713.5 630.5C715.167 634.167 717.333 637 720 639C722.667 641 725.833 642.167 729.5 642.5C733.167 642.833 736.833 641.667 740.5 639C744.167 636.333 746.5 633.833 747.5 631.5C748.5 629.167 749 622.167 749 610.5C749 598.833 748.167 587.667 746.5 577C744.833 566.333 742.667 556.5 740 547.5C737.333 538.5 732.833 527.167 726.5 513.5C720.167 499.833 714.167 489 708.5 481C702.833 473 697.167 466.5 691.5 461.5C685.833 456.5 680 452.667 674 450C668 447.333 661.5 445.833 654.5 445.5C647.5 445.167 640.833 445.833 634.5 447.5Z" fill="#000000" fill-rule="nonzero" opacity="1" stroke="#000000" stroke-linecap="round" stroke-linejoin="round" stroke-width="1"/>
<path d="M1240 553.5C1238 554.5 1236.17 556.333 1234.5 559C1232.83 561.667 1232 565.5 1232 570.5C1232 575.5 1232.83 580.333 1234.5 585C1236.17 589.667 1240.67 598.667 1248 612C1255.33 625.333 1262 636.333 1268 645C1274 653.667 1280 661.167 1286 667.5C1292 673.833 1296.33 677.333 1299 678C1300.33 678.333 1301.67 678.667 1303 679C1303.17 676.167 1303.33 673.333 1303.5 670.5C1303.83 664.833 1303.33 659.167 1302 653.5C1300.67 647.833 1298.5 640.667 1295.5 632C1292.5 623.333 1288 612.333 1282 599C1276 585.667 1270.5 575.167 1265.5 567.5C1260.5 559.833 1256.67 555.333 1254 554C1251.33 552.667 1248.83 552 1246.5 552C1244.17 552 1242 552.5 1240 553.5Z" fill="#000000" fill-rule="nonzero" opacity="1" stroke="#000000" stroke-linecap="round" stroke-linejoin="round" stroke-width="1"/>
<path d="M1277 506C1275.67 506 1274.67 506.833 1274 508.5C1273.33 510.167 1273.67 513.5 1275 518.5C1276.33 523.5 1281.33 534.667 1290 552C1298.67 569.333 1316.67 596.167 1344 632.5C1371.33 668.833 1386.83 691.333 1390.5 700C1394.17 708.667 1395.67 714.167 1395 716.5C1394.33 718.833 1393.17 720.833 1391.5 722.5C1389.83 724.167 1386.5 726.333 1381.5 729C1376.5 731.667 1362.83 736.5 1340.5 743.5C1318.17 750.5 1297.83 756 1279.5 760C1261.17 764 1249.67 766 1245 766C1240.33 766 1237.33 765.667 1236 765C1234.67 764.333 1232.67 761.5 1230 756.5C1227.33 751.5 1222.17 737.833 1214.5 715.5C1206.83 693.167 1197.83 662.167 1187.5 622.5C1177.17 582.833 1170.67 561 1168 557C1165.33 553 1161.67 550.667 1157 550C1152.33 549.333 1148.5 550 1145.5 552C1142.5 554 1140.17 557.5 1138.5 562.5C1136.83 567.5 1136.33 579.667 1137 599C1137.67 618.333 1139.67 636.167 1143 652.5C1146.33 668.833 1153 692 1163 722C1173 752 1177.67 767.333 1177 768C1176.33 768.667 1169.67 763.333 1157 752C1144.33 740.667 1133 731.667 1123 725C1113 718.333 1103.83 711.5 1095.5 704.5C1087.17 697.5 1076.83 690 1064.5 682C1052.17 674 1046.17 669.5 1046.5 668.5C1046.83 667.5 1049 666.5 1053 665.5C1057 664.5 1062.5 662.333 1069.5 659C1076.5 655.667 1082.83 652 1088.5 648C1094.17 644 1099 640 1103 636C1107 632 1111 627.167 1115 621.5C1119 615.833 1122.67 608.667 1126 600C1129.33 591.333 1130.83 582.833 1130.5 574.5C1130.17 566.167 1129.17 559.333 1127.5 554C1125.83 548.667 1123.83 544 1121.5 540C1119.17 536 1116.5 532.5 1113.5 529.5C1110.5 526.5 1107.17 524 1103.5 522C1099.83 520 1096 518.5 1092 517.5C1088 516.5 1083.33 516 1078 516C1072.67 516 1063.33 518 1050 522C1036.67 526 1026 530.5 1018 535.5C1010 540.5 1003 546.333 997 553C991 559.667 984.667 569 978 581C971.333 593 967 602.5 965 609.5C963 616.5 961.5 624 960.5 632C959.5 640 958.333 645.5 957 648.5C955.667 651.5 955.333 655.167 956 659.5C956.667 663.833 956.667 681.667 956 713C955.333 744.333 955.333 764 956 772C956.667 780 957.667 785.833 959 789.5C960.333 793.167 962.333 796 965 798C967.667 800 969.833 801 971.5 801C973.167 801 975 800.333 977 799C979 797.667 980.667 795.5 982 792.5C983.333 789.5 984.667 783.5 986 774.5C987.333 765.5 988.333 750.167 989 728.5C989.333 717.667 989.667 706.833 990 696C1000.33 703.5 1010.67 711 1021 718.5C1041.67 733.5 1059.17 745 1073.5 753C1087.83 761 1099.83 767.333 1109.5 772C1119.17 776.667 1127.17 780 1133.5 782C1139.83 784 1147.17 785.5 1155.5 786.5C1163.83 787.5 1170.83 787.333 1176.5 786C1182.17 784.667 1186.5 786.333 1189.5 791C1192.5 795.667 1195.67 799.5 1199 802.5C1202.33 805.5 1206.67 808.5 1212 811.5C1217.33 814.5 1222.83 816.667 1228.5 818C1234.17 819.333 1243 819.5 1255 818.5C1267 817.5 1287.5 812.833 1316.5 804.5C1345.5 796.167 1367.5 789.167 1382.5 783.5C1397.5 777.833 1408 773.167 1414 769.5C1420 765.833 1425.67 760.833 1431 754.5C1436.33 748.167 1440.17 741.5 1442.5 734.5C1444.83 727.5 1445.5 719.167 1444.5 709.5C1443.5 699.833 1439.67 687.833 1433 673.5C1426.33 659.167 1419.17 646.5 1411.5 635.5C1403.83 624.5 1388 606.167 1364 580.5C1340 554.833 1323 537.833 1313 529.5C1303 521.167 1294.83 515.167 1288.5 511.5C1282.17 507.833 1278.33 506 1277 506ZM1071.75 558.5C1073.58 558.5 1075.33 558.667 1077 559C1080.33 559.667 1083 562.167 1085 566.5C1087 570.833 1087.83 574.833 1087.5 578.5C1087.17 582.167 1085.5 586.5 1082.5 591.5C1079.5 596.5 1075.33 601.333 1070 606C1064.67 610.667 1058.33 615 1051 619C1043.67 623 1035.17 626.667 1025.5 630C1015.83 633.333 1008.17 635.5 1002.5 636.5C999.667 637 996.833 637.5 994 638C995.333 633.667 996.667 629.333 998 625C1000.67 616.333 1004.5 608 1009.5 600C1014.5 592 1020.5 584.833 1027.5 578.5C1034.5 572.167 1041.67 567.5 1049 564.5C1056.33 561.5 1062 559.667 1066 559C1068 558.667 1069.92 558.5 1071.75 558.5Z" fill="#000000" fill-rule="nonzero" opacity="1" stroke="#000000" stroke-linecap="round" stroke-linejoin="round" stroke-width="1"/>
<path d="M1201 568C1199 569.333 1197.33 571.667 1196 575C1194.67 578.333 1194.83 584.333 1196.5 593C1198.17 601.667 1203.17 614.667 1211.5 632C1219.83 649.333 1225.67 660.667 1229 666C1232.33 671.333 1236.33 676.5 1241 681.5C1245.67 686.5 1249.33 689.167 1252 689.5C1253.33 689.667 1254.67 689.833 1256 690C1256.17 687.5 1256.33 685 1256.5 682.5C1256.83 677.5 1256.5 672.5 1255.5 667.5C1254.5 662.5 1250 647.833 1242 623.5C1234 599.167 1228.83 584.833 1226.5 580.5C1224.17 576.167 1222 573 1220 571C1218 569 1214.83 567.667 1210.5 567C1206.17 566.333 1203 566.667 1201 568Z" fill="#000000" fill-rule="nonzero" opacity="1" stroke="#000000" stroke-linecap="round" stroke-linejoin="round" stroke-width="1"/>
<path d="M415.5 657C412.5 659.667 410.833 663.167 410.5 667.5C410.167 671.833 411.167 677.667 413.5 685C415.833 692.333 418.833 698.833 422.5 704.5C424.333 707.333 426.167 710.167 428 713C418 714.667 408 716.333 398 718C378 721.333 365.167 724.333 359.5 727C353.833 729.667 350 732.5 348 735.5C346 738.5 345.333 742.333 346 747C346.667 751.667 348.833 755.167 352.5 757.5C356.167 759.833 362.167 761 370.5 761C378.833 761 389.5 759.833 402.5 757.5C409 756.333 415.5 755.167 422 754C418.333 759.333 414.667 764.667 411 770C403.667 780.667 399 787.833 397 791.5C395 795.167 394 798 394 800C394 801 394 802 394 803C395.333 803 396.667 803 398 803C400.667 803 404.833 801.167 410.5 797.5C416.167 793.833 423.833 787.333 433.5 778C443.167 768.667 450 761.5 454 756.5C456 754 458 751.5 460 749C464.167 752.833 468.333 756.667 472.5 760.5C480.833 768.167 488.167 774.333 494.5 779C500.833 783.667 506.333 787.167 511 789.5C515.667 791.833 519.667 793 523 793C524.667 793 526.333 793 528 793C527.667 791.667 527.333 790.333 527 789C526.333 786.333 520.167 777.667 508.5 763C502.667 755.667 496.833 748.333 491 741C508.667 737.667 526.333 734.333 544 731C579.333 724.333 600.833 719.667 608.5 717C616.167 714.333 620 712.5 620 711.5C620 710.5 619.333 709.667 618 709C616.667 708.333 610.833 707.167 600.5 705.5C590.167 703.833 575.833 702.833 557.5 702.5C539.167 702.167 525.333 702.333 516 703C511.333 703.333 506.667 703.667 502 704C503.5 702.167 505 700.333 506.5 698.5C509.5 694.833 512.167 692.333 514.5 691C516.833 689.667 518.5 688 519.5 686C520.5 684 520.667 680.667 520 676C519.333 671.333 517.333 667.833 514 665.5C510.667 663.167 507.5 662 504.5 662C501.5 662 498.5 662.667 495.5 664C492.5 665.333 488.333 668.667 483 674C477.667 679.333 473.167 684.833 469.5 690.5C465.833 696.167 463.333 699.333 462 700C460.667 700.667 456 694 448 680C440 666 434.5 658 431.5 656C428.5 654 425.833 653 423.5 653C421.167 653 418.5 654.333 415.5 657Z" fill="#000000" fill-rule="nonzero" opacity="1" stroke="#000000" stroke-linecap="round" stroke-linejoin="round" stroke-width="1"/>
</g>
<g id="White" visibility="hidden">
<path d="M1203 126C1201 126.667 1199.17 127.833 1197.5 129.5C1195.83 131.167 1194.67 133 1194 135C1193.33 137 1193.17 139.5 1193.5 142.5C1193.83 145.5 1206.17 168.667 1230.5 212C1254.83 255.333 1283.17 310.833 1315.5 378.5C1347.83 446.167 1372.67 495.167 1390 525.5C1407.33 555.833 1426 585.5 1446 614.5C1466 643.5 1485 669.167 1503 691.5C1521 713.833 1533.17 728 1539.5 734C1545.83 740 1552.17 745.333 1558.5 750C1564.83 754.667 1570.17 758 1574.5 760C1578.83 762 1582.83 763 1586.5 763C1590.17 763 1592.5 762.167 1593.5 760.5C1594.5 758.833 1594.83 757 1594.5 755C1594.17 753 1590.83 745.167 1584.5 731.5C1578.17 717.833 1561.83 691.333 1535.5 652C1509.17 612.667 1492.5 587.167 1485.5 575.5C1482 569.667 1478.5 563.833 1475 558C1485.5 562.167 1496 566.333 1506.5 570.5C1527.5 578.833 1563.5 595.167 1614.5 619.5C1665.5 643.833 1693.17 656.667 1697.5 658C1699.67 658.667 1701.83 659.333 1704 660C1704.33 658.833 1704.67 657.667 1705 656.5C1705.67 654.167 1704 649.667 1700 643C1696 636.333 1691.17 630 1685.5 624C1679.83 618 1668.33 608.5 1651 595.5C1633.67 582.5 1617.5 571.667 1602.5 563C1587.5 554.333 1568.83 544.333 1546.5 533C1524.17 521.667 1509 514.333 1501 511C1493 507.667 1484.17 504.667 1474.5 502C1464.83 499.333 1460 497.667 1460 497C1460 496.333 1463.5 493 1470.5 487C1477.5 481 1491.33 467.333 1512 446C1532.67 424.667 1551.33 406.5 1568 391.5C1584.67 376.5 1604.67 357.5 1628 334.5C1651.33 311.5 1665.33 297.167 1670 291.5C1674.67 285.833 1677 282.167 1677 280.5C1677 279.667 1677 278.833 1677 278C1674 278.5 1671 279 1668 279.5C1662 280.5 1655.17 282.833 1647.5 286.5C1639.83 290.167 1626.33 298.167 1607 310.5C1587.67 322.833 1561.33 342 1528 368C1494.67 394 1473.5 411 1464.5 419C1455.5 427 1445.67 436.667 1435 448C1429.67 453.667 1424.33 459.333 1419 465C1414.5 457 1410 449 1405.5 441C1396.5 425 1381 394.333 1359 349C1337 303.667 1318.33 267.5 1303 240.5C1287.67 213.5 1273.83 191.5 1261.5 174.5C1249.17 157.5 1239.17 145.5 1231.5 138.5C1223.83 131.5 1217.67 127.5 1213 126.5C1208.33 125.5 1205 125.333 1203 126Z" fill="#ffffff" fill-rule="nonzero" opacity="1" stroke="#000000" stroke-linecap="round" stroke-linejoin="round" stroke-width="1"/>
<path d="M525 134.5C521.667 136.167 518.833 138.167 516.5 140.5C514.167 142.833 510 149.5 504 160.5C498 171.5 488.667 191.833 476 221.5C463.333 251.167 449.667 285.667 435 325C420.333 364.333 410.5 389.667 405.5 401C403 406.667 400.5 412.333 398 418C385.167 405.833 372.333 393.667 359.5 381.5C333.833 357.167 312.833 338.833 296.5 326.5C280.167 314.167 270 307 266 305C262 303 258.333 302 255 302C251.667 302 248.5 303.167 245.5 305.5C242.5 307.833 240.5 310.333 239.5 313C238.5 315.667 238.167 319.167 238.5 323.5C238.833 327.833 239.833 332 241.5 336C243.167 340 245.667 344.333 249 349C252.333 353.667 260 361.667 272 373C284 384.333 299.667 397.667 319 413C338.333 428.333 350.833 437.833 356.5 441.5C362.167 445.167 365.333 447.667 366 449C366.333 449.667 366.667 450.333 367 451C360.167 454.5 353.333 458 346.5 461.5C332.833 468.5 320.333 475.667 309 483C297.667 490.333 269.667 512.167 225 548.5C180.333 584.833 152.833 607.667 142.5 617C132.167 626.333 120 638.167 106 652.5C92 666.833 81.5 678.5 74.5 687.5C67.5 696.5 62.6667 703.5 60 708.5C57.3333 713.5 56 717 56 719C56 721 56.5 722.167 57.5 722.5C58.5 722.833 62.1667 721 68.5 717C74.8333 713 109 688.333 171 643C233 597.667 278.833 565 308.5 545C338.167 525 353.5 515 354.5 515C355 515 355.5 515 356 515C348 534.5 340 554 332 573.5C316 612.5 303.333 646.667 294 676C284.667 705.333 278.167 729.667 274.5 749C270.833 768.333 269.167 781.667 269.5 789C269.833 796.333 270.167 800.333 270.5 801C270.833 801.667 271.833 802 273.5 802C275.167 802 276.5 801.5 277.5 800.5C278.5 799.5 284 790.333 294 773C304 755.667 318 729.333 336 694C354 658.667 374.5 616 397.5 566C420.5 516 438.167 476.5 450.5 447.5C462.833 418.5 475.333 386.333 488 351C500.667 315.667 515.5 277 532.5 235C549.5 193 558.5 170.333 559.5 167C560.5 163.667 561 160.167 561 156.5C561 152.833 560.167 149.167 558.5 145.5C556.833 141.833 554 138.667 550 136C546 133.333 541.667 132 537 132C532.333 132 528.333 132.833 525 134.5Z" fill="#ffffff" fill-rule="nonzero" opacity="1" stroke="#000000" stroke-linecap="round" stroke-linejoin="round" stroke-width="1"/>
<path d="M905 141.5C901.667 143.167 898.333 145.667 895 149C891.667 152.333 882 163.5 866 182.5C850 201.5 835.167 220.833 821.5 240.5C807.833 260.167 796.333 277.833 787 293.5C782.333 301.333 777.667 309.167 773 317C771.333 308.667 769.667 300.333 768 292C764.667 275.333 760.5 258.333 755.5 241C750.5 223.667 747 213.667 745 211C743 208.333 740.167 206.167 736.5 204.5C732.833 202.833 729.167 202.333 725.5 203C721.833 203.667 718.667 205.333 716 208C713.333 210.667 711.5 213.5 710.5 216.5C709.5 219.5 709 224.833 709 232.5C709 240.167 709.833 249.5 711.5 260.5C713.167 271.5 717.333 287.667 724 309C730.667 330.333 735.833 344.833 739.5 352.5C743.167 360.167 743.5 366.5 740.5 371.5C737.5 376.5 735.667 380.333 735 383C734.333 385.667 734.333 388.167 735 390.5C735.667 392.833 736.667 394.667 738 396C739.333 397.333 741.667 398 745 398C748.333 398 751.667 396.667 755 394C756.667 392.667 758.333 391.333 760 390C761.5 392 763 394 764.5 396C767.5 400 769.5 402.333 770.5 403C771.5 403.667 773.167 403.833 775.5 403.5C777.833 403.167 779.333 402.167 780 400.5C780.667 398.833 780.833 391.333 780.5 378C780.167 364.667 789.333 344.167 808 316.5C826.667 288.833 844.667 265.167 862 245.5C870.667 235.667 879.333 225.833 888 216C887.167 230.833 886.333 245.667 885.5 260.5C883.833 290.167 883.167 313.5 883.5 330.5C883.833 347.5 884.667 360.333 886 369C887.333 377.667 889 385.167 891 391.5C893 397.833 895.5 402.833 898.5 406.5C901.5 410.167 904 412 906 412C908 412 910.5 407.167 913.5 397.5C916.5 387.833 919.5 375.5 922.5 360.5C925.5 345.5 929.833 313.167 935.5 263.5C941.167 213.833 943.833 184.333 943.5 175C943.167 165.667 942.167 159 940.5 155C938.833 151 936 147.5 932 144.5C928 141.5 923.333 139.833 918 139.5C912.667 139.167 908.333 139.833 905 141.5Z" fill="#ffffff" fill-rule="nonzero" opacity="1" stroke="#000000" stroke-linecap="round" stroke-linejoin="round" stroke-width="1"/>
<path d="M1102 152.5C1096 152.167 1090.83 153 1086.5 155C1082.17 157 1078 159.833 1074 163.5C1070 167.167 1064 174.5 1056 185.5C1048 196.5 1032.33 222.667 1009 264C985.667 305.333 973.5 326.667 972.5 328C971.5 329.333 969 330.833 965 332.5C961 334.167 958.333 335.833 957 337.5C955.667 339.167 954.667 341 954 343C953.333 345 953.167 347.833 953.5 351.5C953.833 355.167 952.167 359.833 948.5 365.5C944.833 371.167 942.667 375.833 942 379.5C941.333 383.167 941.5 386.5 942.5 389.5C943.5 392.5 944.833 394.833 946.5 396.5C948.167 398.167 950 399.333 952 400C954 400.667 957.167 400.5 961.5 399.5C965.833 398.5 969.833 395.667 973.5 391C977.167 386.333 979.833 383.667 981.5 383C983.167 382.333 992 384.833 1008 390.5C1024 396.167 1039 400.667 1053 404C1067 407.333 1075.17 421.5 1077.5 446.5C1079.83 471.5 1082.33 488 1085 496C1087.67 504 1089.83 509 1091.5 511C1093.17 513 1094.83 514.167 1096.5 514.5C1098.17 514.833 1099.67 513.667 1101 511C1102.33 508.333 1104.17 501.5 1106.5 490.5C1108.83 479.5 1111.5 464 1114.5 444C1117.5 424 1121.17 413.5 1125.5 412.5C1129.83 411.5 1132 410.5 1132 409.5C1132 408.5 1130.17 406.167 1126.5 402.5C1122.83 398.833 1123.17 378 1127.5 340C1131.83 302 1134.33 270.333 1135 245C1135.67 219.667 1135.33 202.167 1134 192.5C1132.67 182.833 1130.5 175.167 1127.5 169.5C1124.5 163.833 1121 159.667 1117 157C1113 154.333 1108 152.833 1102 152.5ZM1082 227C1082.17 230.333 1082.33 233.667 1082.5 237C1082.83 243.667 1082.17 257 1080.5 277C1078.83 297 1077.67 317.333 1077 338C1076.33 358.667 1075.67 369.333 1075 370C1074.33 370.667 1069.33 368.667 1060 364C1050.67 359.333 1039.67 354.5 1027 349.5C1014.33 344.5 1008 341.5 1008 340.5C1008 339.5 1020.33 320.333 1045 283C1057.33 264.333 1069.67 245.667 1082 227Z" fill="#ffffff" fill-rule="nonzero" opacity="1" stroke="#000000" stroke-linecap="round" stroke-linejoin="round" stroke-width="1"/>
<path d="M659.094 162.781C655.531 162.844 651.5 163.75 647 165.5C641 167.833 633.667 173.833 625 183.5C616.333 193.167 601.5 214.667 580.5 248C559.5 281.333 545.167 305.333 537.5 320C529.833 334.667 523.5 344.167 518.5 348.5C513.5 352.833 511 358.167 511 364.5C511 370.833 508.833 379.667 504.5 391C500.167 402.333 496.833 413.5 494.5 424.5C492.167 435.5 489.667 444.5 487 451.5C484.333 458.5 483.167 464.5 483.5 469.5C483.833 474.5 485.167 478.167 487.5 480.5C489.833 482.833 493 484 497 484C501 484 504.667 482.5 508 479.5C511.333 476.5 516.5 466.667 523.5 450C530.5 433.333 537 419.333 543 408C549 396.667 565.5 392.667 592.5 396C619.5 399.333 639.167 401.333 651.5 402C663.833 402.667 671.167 405.667 673.5 411C675.833 416.333 679 421.333 683 426C687 430.667 690.667 433.333 694 434C697.333 434.667 700.167 434 702.5 432C704.833 430 707.167 425.333 709.5 418C711.833 410.667 713 401.333 713 390C713 378.667 711.667 358.167 709 328.5C706.333 298.833 703.167 271.333 699.5 246C695.833 220.667 693.167 204.667 691.5 198C689.833 191.333 687.667 185.5 685 180.5C682.333 175.5 679 171.5 675 168.5C671 165.5 666.833 163.667 662.5 163C661.417 162.833 660.281 162.76 659.094 162.781ZM645 233C645.5 235.333 646 237.667 646.5 240C647.5 244.667 649 259.833 651 285.5C653 311.167 655.333 330.667 658 344C659.333 350.667 660.667 357.333 662 364C656.167 362.333 650.333 360.667 644.5 359C632.833 355.667 618.833 352.333 602.5 349C594.333 347.333 586.167 345.667 578 344C578.833 342 579.667 340 580.5 338C582.167 334 588.167 323.333 598.5 306C608.833 288.667 619.167 272.167 629.5 256.5C634.667 248.667 639.833 240.833 645 233Z" fill="#ffffff" fill-rule="nonzero" opacity="1" stroke="#000000" stroke-linecap="round" stroke-linejoin="round" stroke-width="1"/>
<path d="M1228.5 334C1224.83 336.667 1220 345.167 1214 359.5C1211 366.667 1208 373.833 1205 381C1201.83 377.5 1198.67 374 1195.5 370.5C1189.17 363.5 1184.67 359.333 1182 358C1179.33 356.667 1175.67 356.167 1171 356.5C1166.33 356.833 1162.67 358.667 1160 362C1157.33 365.333 1156.17 369.333 1156.5 374C1156.83 378.667 1159.83 385.333 1165.5 394C1168.33 398.333 1171.17 402.667 1174 407C1171.5 407.5 1169 408 1166.5 408.5C1161.5 409.5 1156.83 411.167 1152.5 413.5C1148.17 415.833 1145 418.5 1143 421.5C1141 424.5 1140 428 1140 432C1140 436 1141.17 439.5 1143.5 442.5C1145.83 445.5 1148.17 447.5 1150.5 448.5C1152.83 449.5 1156.33 449.833 1161 449.5C1165.67 449.167 1170.83 447.833 1176.5 445.5C1179.33 444.333 1182.17 443.167 1185 442C1183.33 448.667 1181.67 455.333 1180 462C1176.67 475.333 1174.83 484.667 1174.5 490C1174.17 495.333 1174.33 499 1175 501C1175.67 503 1177 503.833 1179 503.5C1181 503.167 1183.5 501.167 1186.5 497.5C1189.5 493.833 1193.33 487.667 1198 479C1202.67 470.333 1207 461.167 1211 451.5C1213 446.667 1215 441.833 1217 437C1224 440.667 1231 444.333 1238 448C1252 455.333 1260.83 459.5 1264.5 460.5C1268.17 461.5 1272.33 461.833 1277 461.5C1281.67 461.167 1284.17 460.167 1284.5 458.5C1284.83 456.833 1284.17 454.833 1282.5 452.5C1280.83 450.167 1274.33 443.667 1263 433C1257.33 427.667 1251.67 422.333 1246 417C1256.67 412.333 1267.33 407.667 1278 403C1299.33 393.667 1309.83 388.333 1309.5 387C1309.17 385.667 1304.83 384.833 1296.5 384.5C1288.17 384.167 1276.5 385.167 1261.5 387.5C1254 388.667 1246.5 389.833 1239 391C1241.33 385.5 1243.67 380 1246 374.5C1250.67 363.5 1253.17 355.167 1253.5 349.5C1253.83 343.833 1252.83 339.5 1250.5 336.5C1248.17 333.5 1244.83 331.667 1240.5 331C1236.17 330.333 1232.17 331.333 1228.5 334Z" fill="#ffffff" fill-rule="nonzero" opacity="1" stroke="#000000" stroke-linecap="round" stroke-linejoin="round" stroke-width="1"/>
<path d="M791.5 438C780.5 439.333 770.833 441.333 762.5 444C754.167 446.667 748.833 449 746.5 451C744.167 453 742.5 455 741.5 457C740.5 459 739.833 462.167 739.5 466.5C739.167 470.833 739.5 474.167 740.5 476.5C741.5 478.833 743.167 481.167 745.5 483.5C747.833 485.833 751.167 487.667 755.5 489C759.833 490.333 769 490.5 783 489.5C797 488.5 811.667 488.167 827 488.5C834.667 488.667 842.333 488.833 850 489C848.333 496 846.667 503 845 510C841.667 524 838.833 540.833 836.5 560.5C834.167 580.167 832.833 597.5 832.5 612.5C832.167 627.5 832.833 642.667 834.5 658C836.167 673.333 838.833 687.833 842.5 701.5C846.167 715.167 851.5 730 858.5 746C865.5 762 870.167 771.667 872.5 775C874.833 778.333 878.333 782 883 786C887.667 790 891.5 792.5 894.5 793.5C897.5 794.5 900.333 794.833 903 794.5C905.667 794.167 907.5 793.5 908.5 792.5C909.5 791.5 909.667 786.333 909 777C908.333 767.667 904.167 746.333 896.5 713C888.833 679.667 884.333 656.5 883 643.5C881.667 630.5 881.5 613 882.5 591C883.5 569 885.5 547.667 888.5 527C890 516.667 891.5 506.333 893 496C909.5 499.333 926 502.667 942.5 506C975.5 512.667 996.333 516 1005 516C1013.67 516 1019.33 515.667 1022 515C1024.67 514.333 1026.83 513 1028.5 511C1030.17 509 1031 507 1031 505C1031 503 1029.67 499.667 1027 495C1024.33 490.333 1020.17 485.833 1014.5 481.5C1008.83 477.167 998.167 472 982.5 466C966.833 460 952.833 455.333 940.5 452C928.167 448.667 915.5 445.833 902.5 443.5C889.5 441.167 876.833 439.333 864.5 438C852.167 436.667 839.667 436 827 436C814.333 436 802.5 436.667 791.5 438Z" fill="#ffffff" fill-rule="nonzero" opacity="1" stroke="#000000" stroke-linecap="round" stroke-linejoin="round" stroke-width="1"/>
<path d="M634.5 447.5C628.167 449.167 620.833 452.333 612.5 457C604.167 461.667 595 468.667 585 478C575 487.333 568.333 494.167 565 498.5C561.667 502.833 557.667 509.167 553 517.5C548.333 525.833 544.833 533.5 542.5 540.5C540.167 547.5 538.667 555.667 538 565C537.333 574.333 537.667 582.333 539 589C540.333 595.667 542.833 603.167 546.5 611.5C550.167 619.833 554.833 627.833 560.5 635.5C566.167 643.167 572.167 649.833 578.5 655.5C584.833 661.167 592.5 666.667 601.5 672C610.5 677.333 620 681.833 630 685.5C640 689.167 648.5 691.833 655.5 693.5C662.5 695.167 680.167 697.833 708.5 701.5C736.833 705.167 755.667 708.5 765 711.5C774.333 714.5 779.833 716.833 781.5 718.5C783.167 720.167 783.667 723 783 727C782.333 731 780.667 734.5 778 737.5C775.333 740.5 771.167 743.667 765.5 747C759.833 750.333 752.333 753 743 755C733.667 757 715.333 758.167 688 758.5C660.667 758.833 646 760 644 762C642 764 641 767 641 771C641 775 641.833 778.667 643.5 782C645.167 785.333 647.667 788.667 651 792C654.333 795.333 658.333 798.333 663 801C667.667 803.667 673.5 806 680.5 808C687.5 810 695.5 811.5 704.5 812.5C713.5 813.5 721.833 813.833 729.5 813.5C737.167 813.167 743.833 812.333 749.5 811C755.167 809.667 763.333 806.667 774 802C784.667 797.333 793.167 792.667 799.5 788C805.833 783.333 811 778.833 815 774.5C819 770.167 822.833 764.833 826.5 758.5C830.167 752.167 832.667 746.833 834 742.5C835.333 738.167 836.167 733.5 836.5 728.5C836.833 723.5 836.667 718.833 836 714.5C835.333 710.167 833.167 704.5 829.5 697.5C825.833 690.5 822 685.167 818 681.5C814 677.833 809.167 674.333 803.5 671C797.833 667.667 790.833 664.667 782.5 662C774.167 659.333 755.833 655.5 727.5 650.5C699.167 645.5 679 641.333 667 638C655 634.667 644.5 630.667 635.5 626C626.5 621.333 618.833 615.833 612.5 609.5C606.167 603.167 601.5 597.333 598.5 592C595.5 586.667 593.5 582.167 592.5 578.5C591.5 574.833 591 571.333 591 568C591 564.667 591.833 560.167 593.5 554.5C595.167 548.833 597.667 543.167 601 537.5C604.333 531.833 608.667 526 614 520C619.333 514 624.5 509 629.5 505C634.5 501 639.833 498.167 645.5 496.5C651.167 494.833 656.333 496.333 661 501C665.667 505.667 671.5 514.167 678.5 526.5C685.5 538.833 690.333 548.667 693 556C695.667 563.333 699.333 576.667 704 596C708.667 615.333 711.833 626.833 713.5 630.5C715.167 634.167 717.333 637 720 639C722.667 641 725.833 642.167 729.5 642.5C733.167 642.833 736.833 641.667 740.5 639C744.167 636.333 746.5 633.833 747.5 631.5C748.5 629.167 749 622.167 749 610.5C749 598.833 748.167 587.667 746.5 577C744.833 566.333 742.667 556.5 740 547.5C737.333 538.5 732.833 527.167 726.5 513.5C720.167 499.833 714.167 489 708.5 481C702.833 473 697.167 466.5 691.5 461.5C685.833 456.5 680 452.667 674 450C668 447.333 661.5 445.833 654.5 445.5C647.5 445.167 640.833 445.833 634.5 447.5Z" fill="#ffffff" fill-rule="nonzero" opacity="1" stroke="#000000" stroke-linecap="round" stroke-linejoin="round" stroke-width="1"/>
<path d="M1240 553.5C1238 554.5 1236.17 556.333 1234.5 559C1232.83 561.667 1232 565.5 1232 570.5C1232 575.5 1232.83 580.333 1234.5 585C1236.17 589.667 1240.67 598.667 1248 612C1255.33 625.333 1262 636.333 1268 645C1274 653.667 1280 661.167 1286 667.5C1292 673.833 1296.33 677.333 1299 678C1300.33 678.333 1301.67 678.667 1303 679C1303.17 676.167 1303.33 673.333 1303.5 670.5C1303.83 664.833 1303.33 659.167 1302 653.5C1300.67 647.833 1298.5 640.667 1295.5 632C1292.5 623.333 1288 612.333 1282 599C1276 585.667 1270.5 575.167 1265.5 567.5C1260.5 559.833 1256.67 555.333 1254 554C1251.33 552.667 1248.83 552 1246.5 552C1244.17 552 1242 552.5 1240 553.5Z" fill="#ffffff" fill-rule="nonzero" opacity="1" stroke="#000000" stroke-linecap="round" stroke-linejoin="round" stroke-width="1"/>
<path d="M1277 506C1275.67 506 1274.67 506.833 1274 508.5C1273.33 510.167 1273.67 513.5 1275 518.5C1276.33 523.5 1281.33 534.667 1290 552C1298.67 569.333 1316.67 596.167 1344 632.5C1371.33 668.833 1386.83 691.333 1390.5 700C1394.17 708.667 1395.67 714.167 1395 716.5C1394.33 718.833 1393.17 720.833 1391.5 722.5C1389.83 724.167 1386.5 726.333 1381.5 729C1376.5 731.667 1362.83 736.5 1340.5 743.5C1318.17 750.5 1297.83 756 1279.5 760C1261.17 764 1249.67 766 1245 766C1240.33 766 1237.33 765.667 1236 765C1234.67 764.333 1232.67 761.5 1230 756.5C1227.33 751.5 1222.17 737.833 1214.5 715.5C1206.83 693.167 1197.83 662.167 1187.5 622.5C1177.17 582.833 1170.67 561 1168 557C1165.33 553 1161.67 550.667 1157 550C1152.33 549.333 1148.5 550 1145.5 552C1142.5 554 1140.17 557.5 1138.5 562.5C1136.83 567.5 1136.33 579.667 1137 599C1137.67 618.333 1139.67 636.167 1143 652.5C1146.33 668.833 1153 692 1163 722C1173 752 1177.67 767.333 1177 768C1176.33 768.667 1169.67 763.333 1157 752C1144.33 740.667 1133 731.667 1123 725C1113 718.333 1103.83 711.5 1095.5 704.5C1087.17 697.5 1076.83 690 1064.5 682C1052.17 674 1046.17 669.5 1046.5 668.5C1046.83 667.5 1049 666.5 1053 665.5C1057 664.5 1062.5 662.333 1069.5 659C1076.5 655.667 1082.83 652 1088.5 648C1094.17 644 1099 640 1103 636C1107 632 1111 627.167 1115 621.5C1119 615.833 1122.67 608.667 1126 600C1129.33 591.333 1130.83 582.833 1130.5 574.5C1130.17 566.167 1129.17 559.333 1127.5 554C1125.83 548.667 1123.83 544 1121.5 540C1119.17 536 1116.5 532.5 1113.5 529.5C1110.5 526.5 1107.17 524 1103.5 522C1099.83 520 1096 518.5 1092 517.5C1088 516.5 1083.33 516 1078 516C1072.67 516 1063.33 518 1050 522C1036.67 526 1026 530.5 1018 535.5C1010 540.5 1003 546.333 997 553C991 559.667 984.667 569 978 581C971.333 593 967 602.5 965 609.5C963 616.5 961.5 624 960.5 632C959.5 640 958.333 645.5 957 648.5C955.667 651.5 955.333 655.167 956 659.5C956.667 663.833 956.667 681.667 956 713C955.333 744.333 955.333 764 956 772C956.667 780 957.667 785.833 959 789.5C960.333 793.167 962.333 796 965 798C967.667 800 969.833 801 971.5 801C973.167 801 975 800.333 977 799C979 797.667 980.667 795.5 982 792.5C983.333 789.5 984.667 783.5 986 774.5C987.333 765.5 988.333 750.167 989 728.5C989.333 717.667 989.667 706.833 990 696C1000.33 703.5 1010.67 711 1021 718.5C1041.67 733.5 1059.17 745 1073.5 753C1087.83 761 1099.83 767.333 1109.5 772C1119.17 776.667 1127.17 780 1133.5 782C1139.83 784 1147.17 785.5 1155.5 786.5C1163.83 787.5 1170.83 787.333 1176.5 786C1182.17 784.667 1186.5 786.333 1189.5 791C1192.5 795.667 1195.67 799.5 1199 802.5C1202.33 805.5 1206.67 808.5 1212 811.5C1217.33 814.5 1222.83 816.667 1228.5 818C1234.17 819.333 1243 819.5 1255 818.5C1267 817.5 1287.5 812.833 1316.5 804.5C1345.5 796.167 1367.5 789.167 1382.5 783.5C1397.5 777.833 1408 773.167 1414 769.5C1420 765.833 1425.67 760.833 1431 754.5C1436.33 748.167 1440.17 741.5 1442.5 734.5C1444.83 727.5 1445.5 719.167 1444.5 709.5C1443.5 699.833 1439.67 687.833 1433 673.5C1426.33 659.167 1419.17 646.5 1411.5 635.5C1403.83 624.5 1388 606.167 1364 580.5C1340 554.833 1323 537.833 1313 529.5C1303 521.167 1294.83 515.167 1288.5 511.5C1282.17 507.833 1278.33 506 1277 506ZM1071.75 558.5C1073.58 558.5 1075.33 558.667 1077 559C1080.33 559.667 1083 562.167 1085 566.5C1087 570.833 1087.83 574.833 1087.5 578.5C1087.17 582.167 1085.5 586.5 1082.5 591.5C1079.5 596.5 1075.33 601.333 1070 606C1064.67 610.667 1058.33 615 1051 619C1043.67 623 1035.17 626.667 1025.5 630C1015.83 633.333 1008.17 635.5 1002.5 636.5C999.667 637 996.833 637.5 994 638C995.333 633.667 996.667 629.333 998 625C1000.67 616.333 1004.5 608 1009.5 600C1014.5 592 1020.5 584.833 1027.5 578.5C1034.5 572.167 1041.67 567.5 1049 564.5C1056.33 561.5 1062 559.667 1066 559C1068 558.667 1069.92 558.5 1071.75 558.5Z" fill="#ffffff" fill-rule="nonzero" opacity="1" stroke="#000000" stroke-linecap="round" stroke-linejoin="round" stroke-width="1"/>
<path d="M1201 568C1199 569.333 1197.33 571.667 1196 575C1194.67 578.333 1194.83 584.333 1196.5 593C1198.17 601.667 1203.17 614.667 1211.5 632C1219.83 649.333 1225.67 660.667 1229 666C1232.33 671.333 1236.33 676.5 1241 681.5C1245.67 686.5 1249.33 689.167 1252 689.5C1253.33 689.667 1254.67 689.833 1256 690C1256.17 687.5 1256.33 685 1256.5 682.5C1256.83 677.5 1256.5 672.5 1255.5 667.5C1254.5 662.5 1250 647.833 1242 623.5C1234 599.167 1228.83 584.833 1226.5 580.5C1224.17 576.167 1222 573 1220 571C1218 569 1214.83 567.667 1210.5 567C1206.17 566.333 1203 566.667 1201 568Z" fill="#ffffff" fill-rule="nonzero" opacity="1" stroke="#000000" stroke-linecap="round" stroke-linejoin="round" stroke-width="1"/>
<path d="M415.5 657C412.5 659.667 410.833 663.167 410.5 667.5C410.167 671.833 411.167 677.667 413.5 685C415.833 692.333 418.833 698.833 422.5 704.5C424.333 707.333 426.167 710.167 428 713C418 714.667 408 716.333 398 718C378 721.333 365.167 724.333 359.5 727C353.833 729.667 350 732.5 348 735.5C346 738.5 345.333 742.333 346 747C346.667 751.667 348.833 755.167 352.5 757.5C356.167 759.833 362.167 761 370.5 761C378.833 761 389.5 759.833 402.5 757.5C409 756.333 415.5 755.167 422 754C418.333 759.333 414.667 764.667 411 770C403.667 780.667 399 787.833 397 791.5C395 795.167 394 798 394 800C394 801 394 802 394 803C395.333 803 396.667 803 398 803C400.667 803 404.833 801.167 410.5 797.5C416.167 793.833 423.833 787.333 433.5 778C443.167 768.667 450 761.5 454 756.5C456 754 458 751.5 460 749C464.167 752.833 468.333 756.667 472.5 760.5C480.833 768.167 488.167 774.333 494.5 779C500.833 783.667 506.333 787.167 511 789.5C515.667 791.833 519.667 793 523 793C524.667 793 526.333 793 528 793C527.667 791.667 527.333 790.333 527 789C526.333 786.333 520.167 777.667 508.5 763C502.667 755.667 496.833 748.333 491 741C508.667 737.667 526.333 734.333 544 731C579.333 724.333 600.833 719.667 608.5 717C616.167 714.333 620 712.5 620 711.5C620 710.5 619.333 709.667 618 709C616.667 708.333 610.833 707.167 600.5 705.5C590.167 703.833 575.833 702.833 557.5 702.5C539.167 702.167 525.333 702.333 516 703C511.333 703.333 506.667 703.667 502 704C503.5 702.167 505 700.333 506.5 698.5C509.5 694.833 512.167 692.333 514.5 691C516.833 689.667 518.5 688 519.5 686C520.5 684 520.667 680.667 520 676C519.333 671.333 517.333 667.833 514 665.5C510.667 663.167 507.5 662 504.5 662C501.5 662 498.5 662.667 495.5 664C492.5 665.333 488.333 668.667 483 674C477.667 679.333 473.167 684.833 469.5 690.5C465.833 696.167 463.333 699.333 462 700C460.667 700.667 456 694 448 680C440 666 434.5 658 431.5 656C428.5 654 425.833 653 423.5 653C421.167 653 418.5 654.333 415.5 657Z" fill="#ffffff" fill-rule="nonzero" opacity="1" stroke="#000000" stroke-linecap="round" stroke-linejoin="round" stroke-width="1"/>
</g>
</svg>
